<?xml version="1.0" encoding="utf-8"?>
<!-- Generator: Adobe Illustrator 26.5.0, SVG Export Plug-In . SVG Version: 6.00 Build 0)  -->
<svg version="1.1" id="Layer_1" xmlns="http://www.w3.org/2000/svg" xmlns:xlink="http://www.w3.org/1999/xlink" x="0px" y="0px"
	 viewBox="0 0 1600 1600" style="enable-background:new 0 0 1600 1600;" xml:space="preserve">
<style type="text/css">
	.st0{enable-background:new    ;}
	.st1{fill:#808083;}
	.st2{fill:#033D54;}
	.st3{fill-rule:evenodd;clip-rule:evenodd;fill:#A6A4A9;}
	.st4{fill-rule:evenodd;clip-rule:evenodd;fill:#023D55;}
</style>
<g>
	<g>
		<g class="st0">
			<path class="st1" d="M699.94,723.86l39.27,98.67l-9.07-1.82l37.12-96.85h18.98l-52.64,124.91l-52.8-124.91H699.94z"/>
			<path class="st1" d="M826.82,843.15l51.98-124.25h0.99l52.14,124.25h-18.32l-38.94-99.17l11.38-7.42l-43.39,106.59H826.82z
				 M857.34,797.94h44.38l5.28,13.86h-54.29L857.34,797.94z"/>
			<path class="st1" d="M1014.75,723.86c6.05,0,11.63,0.8,16.75,2.39c5.12,1.6,9.57,3.96,13.37,7.09s6.76,7.01,8.91,11.63
				c2.14,4.62,3.22,9.9,3.22,15.84c0,4.73-0.69,9.35-2.06,13.86c-1.38,4.51-3.63,8.61-6.77,12.29c-3.13,3.69-7.26,6.66-12.38,8.91
				c-5.11,2.26-11.47,3.38-19.06,3.38h-17.65v43.89h-16V723.86H1014.75z M1016.4,783.75c4.73,0,8.66-0.71,11.8-2.14
				c3.13-1.43,5.58-3.27,7.34-5.53c1.76-2.25,3.02-4.65,3.79-7.18c0.77-2.53,1.16-5,1.16-7.42c0-2.42-0.41-4.89-1.24-7.42
				c-0.82-2.53-2.14-4.92-3.96-7.18c-1.81-2.25-4.18-4.1-7.09-5.53c-2.92-1.43-6.46-2.15-10.64-2.15h-18.48v44.55H1016.4z
				 M1036.04,792.99l31.18,50.16h-18.48l-31.85-49.67L1036.04,792.99z"/>
			<path class="st1" d="M1223.8,846.95l-92.24-93.55l4.62,1.15l0.33,88.61h-16V720.23h0.82l91.08,93.88l-3.63-0.83l-0.33-89.43h16
				v123.09H1223.8z"/>
			<path class="st1" d="M1287.49,723.86h16v119.29h-16V723.86z"/>
		</g>
	</g>
	<g>
		<g class="st0">
			<path class="st2" d="M718.8,875.55h18.35v4.26h-13.91v7.37h12.39v4.26h-12.39v7.52h14.44v4.26H718.8V875.55z"/>
			<path class="st2" d="M808.02,903.21l9.73-15.24l2.09,4.37l-6.35,10.87H808.02z M808.4,875.55h5.66l18.01,27.66h-5.66
				L808.4,875.55z M820.07,886.34l6.31-10.79h5.36l-9.31,14.59L820.07,886.34z"/>
			<path class="st2" d="M911.76,875.55c2.1,0,3.9,0.36,5.4,1.06s2.64,1.73,3.44,3.06s1.2,2.92,1.2,4.77c0,1.09-0.17,2.19-0.51,3.29
				c-0.34,1.1-0.88,2.09-1.61,2.96c-0.74,0.87-1.7,1.58-2.91,2.13c-1.2,0.54-2.65,0.82-4.35,0.82h-4.03v9.58h-4.45v-27.66H911.76z
				 M912.37,889.3c0.99,0,1.81-0.16,2.45-0.49c0.65-0.33,1.15-0.74,1.52-1.23c0.37-0.49,0.63-1.02,0.8-1.58
				c0.16-0.56,0.25-1.05,0.25-1.48c0-0.46-0.08-0.95-0.23-1.48c-0.15-0.53-0.4-1.04-0.74-1.54c-0.34-0.49-0.84-0.9-1.48-1.22
				c-0.65-0.32-1.46-0.48-2.45-0.48h-4.1v9.5H912.37z"/>
			<path class="st2" d="M992.32,889.42c0-1.9,0.37-3.71,1.1-5.42s1.75-3.22,3.04-4.54s2.79-2.35,4.48-3.1s3.53-1.12,5.51-1.12
				c1.92,0,3.74,0.37,5.45,1.12s3.22,1.78,4.54,3.1s2.34,2.83,3.08,4.54c0.73,1.71,1.1,3.51,1.1,5.42c0,1.95-0.37,3.78-1.1,5.47
				c-0.74,1.7-1.77,3.2-3.1,4.5c-1.33,1.31-2.84,2.32-4.54,3.04c-1.7,0.72-3.52,1.08-5.47,1.08s-3.77-0.36-5.47-1.08
				c-1.7-0.72-3.19-1.72-4.48-3c-1.29-1.28-2.31-2.77-3.04-4.48S992.32,891.39,992.32,889.42z M996.88,889.38
				c0,1.39,0.25,2.69,0.74,3.88c0.49,1.19,1.18,2.24,2.07,3.13c0.89,0.9,1.92,1.6,3.1,2.11s2.44,0.76,3.78,0.76s2.59-0.25,3.74-0.76
				c1.15-0.51,2.15-1.21,3-2.11c0.85-0.9,1.52-1.94,2.01-3.13c0.49-1.19,0.74-2.47,0.74-3.84c0-1.39-0.25-2.68-0.76-3.88
				c-0.51-1.19-1.19-2.24-2.05-3.15s-1.88-1.62-3.04-2.13c-1.17-0.51-2.42-0.76-3.76-0.76s-2.6,0.26-3.76,0.78
				c-1.17,0.52-2.19,1.23-3.06,2.13s-1.55,1.95-2.03,3.15C997.12,886.77,996.88,888.04,996.88,889.38z"/>
			<path class="st2" d="M1101.22,875.55c1.52,0,2.91,0.2,4.16,0.61s2.33,0.98,3.23,1.73c0.9,0.75,1.59,1.67,2.07,2.75
				c0.48,1.09,0.72,2.36,0.72,3.8c0,1.09-0.17,2.18-0.49,3.27c-0.33,1.09-0.87,2.08-1.61,2.96c-0.75,0.89-1.73,1.6-2.95,2.13
				s-2.71,0.8-4.48,0.8h-4.03v9.61h-4.45v-27.66H1101.22z M1101.79,889.3c0.96,0,1.77-0.15,2.43-0.46c0.66-0.3,1.18-0.7,1.56-1.18
				c0.38-0.48,0.65-0.99,0.82-1.54c0.16-0.54,0.25-1.06,0.25-1.54c0-0.46-0.08-0.96-0.23-1.5c-0.15-0.54-0.41-1.07-0.78-1.58
				c-0.37-0.51-0.87-0.92-1.5-1.23c-0.63-0.32-1.43-0.48-2.39-0.48h-4.1v9.5H1101.79z M1106.58,892l7.07,11.21h-5.17l-7.18-11.1
				L1106.58,892z"/>
			<path class="st2" d="M1183.76,875.55h18.51v4.26h-7.14v23.41h-4.41V879.8h-6.95V875.55z"/>
			<path class="st2" d="M1289.32,881.21c-0.99-0.53-2.04-0.98-3.15-1.35c-1.12-0.37-2.18-0.55-3.19-0.55c-1.37,0-2.45,0.3-3.23,0.91
				c-0.79,0.61-1.18,1.44-1.18,2.51c0,0.76,0.27,1.43,0.82,2c0.54,0.57,1.25,1.06,2.11,1.48s1.77,0.82,2.74,1.2
				c0.84,0.3,1.66,0.67,2.47,1.08s1.55,0.92,2.22,1.52c0.67,0.6,1.2,1.36,1.6,2.28s0.59,2.03,0.59,3.33c0,1.47-0.36,2.79-1.08,3.97
				c-0.72,1.18-1.78,2.13-3.17,2.85c-1.39,0.72-3.05,1.08-4.98,1.08c-1.17,0-2.3-0.13-3.4-0.38s-2.15-0.59-3.13-1.03
				c-0.99-0.43-1.9-0.95-2.74-1.56l1.98-3.42c0.61,0.46,1.3,0.87,2.09,1.25c0.78,0.38,1.59,0.68,2.41,0.91
				c0.82,0.23,1.61,0.34,2.38,0.34c0.76,0,1.54-0.13,2.34-0.4c0.8-0.27,1.45-0.69,1.96-1.27c0.51-0.58,0.76-1.37,0.76-2.36
				c0-0.79-0.23-1.45-0.68-2s-1.04-1.03-1.77-1.44s-1.51-0.79-2.38-1.12c-0.84-0.33-1.71-0.7-2.62-1.1s-1.75-0.91-2.53-1.5
				s-1.39-1.32-1.84-2.19c-0.46-0.86-0.68-1.91-0.68-3.15c0-1.52,0.34-2.84,1.03-3.97c0.68-1.13,1.67-2.02,2.95-2.68
				c1.28-0.66,2.73-1.01,4.35-1.06c1.95,0,3.62,0.24,5,0.7c1.38,0.47,2.62,1.04,3.71,1.73L1289.32,881.21z"/>
		</g>
	</g>
	<path class="st3" d="M634.53,642.29c0,0-8.84,157.9,0,328"/>
	<path class="st4" d="M369.06,673.71h102v33h-102V673.71z"/>
	<path class="st4" d="M347.78,782.05l99.84-102.87l19.92,19.34L367.7,801.39L347.78,782.05z"/>
	<path class="st4" d="M440.06,693.71h31v50h-31V693.71z"/>
	<path class="st4" d="M298.93,818.71h39.77l20.51,18.63l-0.92,41.17L298.93,818.71z"/>
	<path class="st4" d="M439.06,792.71c0,0,59.26-45.37,66-51c0,7,0,14,0,21"/>
	<path class="st4" d="M382.06,821.71c0,0,108.79-26.6,207-81c-20,26-40,52-60,78"/>
	<path class="st4" d="M291.06,629.71"/>
	<path class="st4" d="M441.06,794.71c0,0,87.57-29.35,123-66c-6,9.33-12,18.67-18,28"/>
	<path class="st4" d="M512.06,713.71l33-9v41l-2-26L512.06,713.71z"/>
	<path class="st4" d="M297.54,761.54l1.51,39.53c0,0,47.01-50.47,50.71-58.62c-6.02-5.38-12.03-10.76-18.05-16.14"/>
	<path class="st4" d="M379.06,902.71v-46l64,62l99-99h47l-146,146L379.06,902.71z"/>
	
		<rect x="310.62" y="747.99" transform="matrix(0.7175 0.6966 -0.6966 0.7175 630.8544 -27.8055)" class="st4" width="78.17" height="31.57"/>
</g>
</svg>
