<?xml version="1.0" encoding="utf-8"?>
<!-- Generator: Adobe Illustrator 26.5.0, SVG Export Plug-In . SVG Version: 6.00 Build 0)  -->
<svg version="1.1" id="Layer_1" xmlns="http://www.w3.org/2000/svg" xmlns:xlink="http://www.w3.org/1999/xlink" x="0px" y="0px"
	 viewBox="0 0 1600 1600" style="enable-background:new 0 0 1600 1600;" xml:space="preserve">
<style type="text/css">
	.st0{enable-background:new    ;}
	.st1{fill:#808083;}
	.st2{fill:#033D54;}
	.st3{fill-rule:evenodd;clip-rule:evenodd;fill:#A6A4A9;}
	.st4{display:none;fill-rule:evenodd;clip-rule:evenodd;fill:#003C54;}
	.st5{fill-rule:evenodd;clip-rule:evenodd;fill:#003C54;}
</style>
<g>
	<g>
		<g class="st0">
			<path class="st1" d="M697.45,718.02l39.27,98.67l-9.07-1.82l37.12-96.85h18.98l-52.64,124.91l-52.8-124.91H697.45z"/>
			<path class="st1" d="M824.33,837.32l51.98-124.25h0.99l52.14,124.25h-18.31l-38.94-99.17l11.38-7.42l-43.39,106.59H824.33z
				 M854.86,792.11h44.38l5.28,13.86h-54.29L854.86,792.11z"/>
			<path class="st1" d="M1012.27,718.02c6.05,0,11.63,0.8,16.75,2.39c5.12,1.6,9.57,3.96,13.37,7.09s6.76,7.01,8.91,11.63
				c2.15,4.62,3.22,9.9,3.22,15.84c0,4.73-0.69,9.35-2.06,13.86c-1.38,4.51-3.63,8.61-6.77,12.29c-3.13,3.69-7.26,6.66-12.38,8.91
				c-5.12,2.26-11.47,3.38-19.06,3.38h-17.66v43.89h-16V718.02H1012.27z M1013.92,777.92c4.73,0,8.66-0.71,11.8-2.14
				c3.13-1.43,5.58-3.27,7.34-5.53c1.76-2.25,3.03-4.65,3.79-7.18c0.77-2.53,1.16-5,1.16-7.42c0-2.42-0.41-4.89-1.24-7.42
				c-0.82-2.53-2.14-4.92-3.96-7.18c-1.82-2.25-4.18-4.1-7.09-5.53c-2.92-1.43-6.46-2.15-10.64-2.15h-18.48v44.55H1013.92z
				 M1033.55,787.16l31.18,50.16h-18.48l-31.85-49.67L1033.55,787.16z"/>
			<path class="st1" d="M1221.32,841.11l-92.23-93.55l4.62,1.15l0.33,88.61h-16V714.39h0.82l91.08,93.88l-3.63-0.83l-0.33-89.43h16
				v123.09H1221.32z"/>
			<path class="st1" d="M1285.01,718.02h16v119.29h-16V718.02z"/>
		</g>
	</g>
	<g>
		<g class="st0">
			<path class="st2" d="M1040.05,868.06h31.96v6.32h-25.36v14.96h22.64v6.39h-22.64v15.16h26.32v6.32h-32.91V868.06z"/>
			<path class="st2" d="M1079.63,917.22l17.07-26.79l3.2,6.46l-12.1,20.33H1079.63z M1080.31,868.06h8.36l32.03,49.16h-8.5
				L1080.31,868.06z M1100.16,888.12l11.9-20.06h7.96l-16.39,25.64L1100.16,888.12z"/>
			<path class="st2" d="M1143.21,868.06c3.58,0,6.64,0.6,9.18,1.8c2.54,1.2,4.5,2.94,5.88,5.2c1.38,2.27,2.07,5.01,2.07,8.23
				c0,1.95-0.29,3.87-0.88,5.75c-0.59,1.88-1.53,3.58-2.82,5.1c-1.29,1.52-2.98,2.74-5.07,3.67c-2.09,0.93-4.62,1.39-7.62,1.39
				h-7.28v18.02h-6.6v-49.16H1143.21z M1143.89,892.74c1.95,0,3.56-0.31,4.83-0.92c1.27-0.61,2.27-1.42,2.99-2.41
				s1.25-2.02,1.56-3.06c0.32-1.04,0.48-2.02,0.48-2.92c0-1-0.16-2.03-0.48-3.09c-0.32-1.07-0.85-2.04-1.6-2.92
				c-0.75-0.88-1.72-1.61-2.92-2.18c-1.2-0.57-2.69-0.85-4.45-0.85h-7.62v18.36H1143.89z"/>
			<path class="st2" d="M1167.48,892.67c0-3.4,0.65-6.62,1.94-9.66c1.29-3.04,3.09-5.72,5.41-8.06c2.31-2.33,4.97-4.16,7.99-5.47
				c3.01-1.31,6.27-1.97,9.76-1.97c3.4,0,6.62,0.66,9.66,1.97c3.04,1.32,5.72,3.14,8.06,5.47c2.33,2.33,4.16,5.02,5.47,8.06
				c1.31,3.04,1.97,6.28,1.97,9.72c0,3.45-0.66,6.69-1.97,9.72c-1.32,3.04-3.13,5.7-5.44,7.99c-2.31,2.29-4.99,4.08-8.02,5.37
				s-6.28,1.94-9.72,1.94c-3.49,0-6.74-0.63-9.76-1.9c-3.02-1.27-5.68-3.05-7.99-5.34c-2.31-2.29-4.11-4.94-5.41-7.96
				C1168.13,899.55,1167.48,896.25,1167.48,892.67z M1174.28,892.67c0,2.63,0.46,5.07,1.39,7.31c0.93,2.24,2.24,4.23,3.94,5.95
				c1.7,1.72,3.65,3.07,5.85,4.05c2.2,0.98,4.59,1.46,7.17,1.46s4.97-0.49,7.17-1.46c2.2-0.97,4.12-2.31,5.78-4.01
				c1.65-1.7,2.96-3.68,3.91-5.95c0.95-2.27,1.43-4.69,1.43-7.28c0-2.63-0.48-5.08-1.43-7.34c-0.95-2.27-2.26-4.27-3.91-6.02
				c-1.66-1.75-3.6-3.1-5.85-4.08c-2.24-0.97-4.63-1.46-7.17-1.46c-2.58,0-5,0.5-7.24,1.5c-2.24,1-4.19,2.36-5.85,4.08
				c-1.66,1.72-2.94,3.73-3.84,6.02C1174.73,887.72,1174.28,890.14,1174.28,892.67z"/>
			<path class="st2" d="M1241.87,868.06c2.49,0,4.79,0.33,6.9,0.99s3.94,1.63,5.51,2.92c1.56,1.29,2.79,2.89,3.67,4.79
				c0.88,1.9,1.33,4.08,1.33,6.53c0,1.95-0.28,3.85-0.85,5.71c-0.57,1.86-1.5,3.55-2.79,5.07c-1.29,1.52-2.99,2.74-5.1,3.67
				c-2.11,0.93-4.73,1.39-7.85,1.39h-7.28v18.09h-6.6v-49.16H1241.87z M1242.55,892.74c1.95,0,3.57-0.29,4.86-0.88
				c1.29-0.59,2.3-1.35,3.03-2.28c0.72-0.93,1.25-1.92,1.56-2.96c0.32-1.04,0.48-2.06,0.48-3.06c0-1-0.17-2.02-0.51-3.06
				s-0.88-2.03-1.63-2.96c-0.75-0.93-1.72-1.69-2.92-2.28c-1.2-0.59-2.66-0.88-4.38-0.88h-7.62v18.36H1242.55z M1250.64,896.55
				l12.85,20.67h-7.62l-13.12-20.47L1250.64,896.55z"/>
			<path class="st2" d="M1269.96,868.06h32.71v6.32h-13.19v42.84h-6.6v-42.84h-12.92V868.06z"/>
		</g>
	</g>
	<path class="st3" d="M632.05,636.45c0,0-8.84,157.9,0,328"/>
	<g>
		<path class="st4" d="M293.54,635.55"/>
		<g>
			<path class="st5" d="M368.31,657.55h102v33h-102V657.55z"/>
			<path class="st5" d="M347.02,765.89l99.84-102.87l19.92,19.34l-99.84,102.87L347.02,765.89z"/>
			<path class="st5" d="M439.31,677.55h31v50h-31V677.55z"/>
			<path class="st5" d="M439.31,678.31h31v50h-31V678.31z"/>
			<path class="st5" d="M438.31,776.55c0,0,59.26-45.37,66-51c0,7,0,14,0,21"/>
			<path class="st5" d="M381.31,805.55c0,0,108.79-26.6,207-81c-20,26-40,52-60,78"/>
			<path class="st5" d="M440.31,778.55c0,0,87.57-29.35,123-66c-6,9.33-12,18.67-18,28"/>
			<path class="st5" d="M511.31,697.55l33-9v41l-2-26L511.31,697.55z"/>
			<path class="st5" d="M296.78,745.38l1.51,39.53c0,0,47.01-50.47,50.71-58.62c-6.02-5.38-12.03-10.76-18.05-16.14"/>
			
				<rect x="309.87" y="731.83" transform="matrix(0.7175 0.6966 -0.6966 0.7175 619.384 -31.847)" class="st5" width="78.17" height="31.57"/>
			<g>
				<path class="st5" d="M299.26,805.76h43.61l13.57,14.49v44.43L299.26,805.76z"/>
				<path class="st5" d="M379.35,886.29v-44.58l62.03,60.09l95.95-95.95h45.55L441.37,947.34L379.35,886.29z"/>
			</g>
		</g>
	</g>
</g>
</svg>
